<svg width="575" height="475" viewBox="0 0 575 475" fill="none" xmlns="http://www.w3.org/2000/svg">
<g filter="url(#filter0_d_0_245)">
<path d="M18 389C18 381.268 24.268 375 32 375H212C219.732 375 226 381.268 226 389V421C226 428.732 219.732 435 212 435H32C24.268 435 18 428.732 18 421V389Z" fill="#00CCCC"/>
<path d="M18.5 389C18.5 381.544 24.5442 375.5 32 375.5H212C219.456 375.5 225.5 381.544 225.5 389V421C225.5 428.456 219.456 434.5 212 434.5H32C24.5442 434.5 18.5 428.456 18.5 421V389Z" stroke="#00CCCC"/>
</g>
<path d="M40.1426 411V398.203H44.0801C45.2051 398.203 46.21 398.458 47.0947 398.968C47.9854 399.472 48.6797 400.192 49.1777 401.13C49.6758 402.062 49.9248 403.122 49.9248 404.312V404.9C49.9248 406.09 49.6787 407.147 49.1865 408.073C48.7002 408.999 48.0117 409.717 47.1211 410.227C46.2305 410.736 45.2256 410.994 44.1064 411H40.1426ZM42.7793 400.339V408.882H44.0537C45.085 408.882 45.873 408.545 46.418 407.871C46.9629 407.197 47.2412 406.233 47.2529 404.979V404.303C47.2529 403.002 46.9834 402.018 46.4443 401.35C45.9053 400.676 45.1172 400.339 44.0801 400.339H42.7793ZM54.3633 411H51.8145V401.49H54.3633V411ZM51.665 399.029C51.665 398.648 51.791 398.335 52.043 398.089C52.3008 397.843 52.6494 397.72 53.0889 397.72C53.5225 397.72 53.8682 397.843 54.126 398.089C54.3838 398.335 54.5127 398.648 54.5127 399.029C54.5127 399.416 54.3809 399.732 54.1172 399.979C53.8594 400.225 53.5166 400.348 53.0889 400.348C52.6611 400.348 52.3154 400.225 52.0518 399.979C51.7939 399.732 51.665 399.416 51.665 399.029ZM61.6143 408.372C61.6143 408.062 61.459 407.818 61.1484 407.643C60.8438 407.461 60.3516 407.3 59.6719 407.159C57.4102 406.685 56.2793 405.724 56.2793 404.276C56.2793 403.433 56.6279 402.729 57.3252 402.167C58.0283 401.599 58.9453 401.314 60.0762 401.314C61.2832 401.314 62.2471 401.599 62.9678 402.167C63.6943 402.735 64.0576 403.474 64.0576 404.382H61.5176C61.5176 404.019 61.4004 403.72 61.166 403.485C60.9316 403.245 60.5654 403.125 60.0674 403.125C59.6396 403.125 59.3086 403.222 59.0742 403.415C58.8398 403.608 58.7227 403.854 58.7227 404.153C58.7227 404.435 58.8545 404.663 59.1182 404.839C59.3877 405.009 59.8389 405.158 60.4717 405.287C61.1045 405.41 61.6377 405.551 62.0713 405.709C63.4131 406.201 64.084 407.054 64.084 408.267C64.084 409.134 63.7119 409.837 62.9678 410.376C62.2236 410.909 61.2627 411.176 60.085 411.176C59.2881 411.176 58.5791 411.035 57.958 410.754C57.3428 410.467 56.8594 410.077 56.5078 409.585C56.1562 409.087 55.9805 408.551 55.9805 407.977H58.3887C58.4121 408.428 58.5791 408.773 58.8896 409.014C59.2002 409.254 59.6162 409.374 60.1377 409.374C60.624 409.374 60.9902 409.283 61.2363 409.102C61.4883 408.914 61.6143 408.671 61.6143 408.372ZM69.6826 409.128C70.1514 409.128 70.5322 408.999 70.8252 408.741C71.1182 408.483 71.2705 408.141 71.2822 407.713H73.6641C73.6582 408.357 73.4824 408.949 73.1367 409.488C72.791 410.021 72.3164 410.438 71.7129 410.736C71.1152 411.029 70.4531 411.176 69.7266 411.176C68.3672 411.176 67.2949 410.745 66.5098 409.884C65.7246 409.017 65.332 407.821 65.332 406.298V406.131C65.332 404.666 65.7217 403.497 66.501 402.624C67.2803 401.751 68.3496 401.314 69.709 401.314C70.8984 401.314 71.8506 401.654 72.5654 402.334C73.2861 403.008 73.6523 403.907 73.6641 405.032H71.2822C71.2705 404.54 71.1182 404.142 70.8252 403.837C70.5322 403.526 70.1455 403.371 69.665 403.371C69.0732 403.371 68.625 403.588 68.3203 404.021C68.0215 404.449 67.8721 405.146 67.8721 406.113V406.377C67.8721 407.355 68.0215 408.059 68.3203 408.486C68.6191 408.914 69.0732 409.128 69.6826 409.128ZM74.7188 406.157C74.7188 405.214 74.9004 404.373 75.2637 403.635C75.627 402.896 76.1484 402.325 76.8281 401.921C77.5137 401.517 78.3076 401.314 79.21 401.314C80.4932 401.314 81.5391 401.707 82.3477 402.492C83.1621 403.277 83.6162 404.344 83.71 405.691L83.7275 406.342C83.7275 407.801 83.3203 408.973 82.5059 409.857C81.6914 410.736 80.5986 411.176 79.2275 411.176C77.8564 411.176 76.7607 410.736 75.9404 409.857C75.126 408.979 74.7188 407.783 74.7188 406.271V406.157ZM77.2588 406.342C77.2588 407.244 77.4287 407.936 77.7686 408.416C78.1084 408.891 78.5947 409.128 79.2275 409.128C79.8428 409.128 80.3232 408.894 80.6689 408.425C81.0146 407.95 81.1875 407.194 81.1875 406.157C81.1875 405.272 81.0146 404.587 80.6689 404.101C80.3232 403.614 79.8369 403.371 79.21 403.371C78.5889 403.371 78.1084 403.614 77.7686 404.101C77.4287 404.581 77.2588 405.328 77.2588 406.342ZM88.7109 407.897L90.4775 401.49H93.1318L89.9238 411H87.498L84.29 401.49H86.9443L88.7109 407.897ZM98.5107 411.176C97.1162 411.176 95.9795 410.748 95.1006 409.893C94.2275 409.037 93.791 407.897 93.791 406.474V406.228C93.791 405.272 93.9756 404.42 94.3447 403.67C94.7139 402.914 95.2354 402.334 95.9092 401.93C96.5889 401.52 97.3623 401.314 98.2295 401.314C99.5303 401.314 100.553 401.725 101.297 402.545C102.047 403.365 102.422 404.528 102.422 406.034V407.071H96.3662C96.4482 407.692 96.6943 408.19 97.1045 408.565C97.5205 408.94 98.0449 409.128 98.6777 409.128C99.6562 409.128 100.421 408.773 100.972 408.064L102.22 409.462C101.839 410.001 101.323 410.423 100.673 410.728C100.022 411.026 99.3018 411.176 98.5107 411.176ZM98.2207 403.371C97.7168 403.371 97.3066 403.541 96.9902 403.881C96.6797 404.221 96.4805 404.707 96.3926 405.34H99.9258V405.138C99.9141 404.575 99.7617 404.142 99.4688 403.837C99.1758 403.526 98.7598 403.371 98.2207 403.371ZM109.216 403.872C108.87 403.825 108.565 403.802 108.302 403.802C107.341 403.802 106.711 404.127 106.412 404.777V411H103.872V401.49H106.271L106.342 402.624C106.852 401.751 107.558 401.314 108.46 401.314C108.741 401.314 109.005 401.353 109.251 401.429L109.216 403.872ZM117.407 402.527C118.081 401.719 118.928 401.314 119.947 401.314C122.01 401.314 123.056 402.513 123.085 404.909V411H120.545V404.979C120.545 404.435 120.428 404.033 120.193 403.775C119.959 403.512 119.569 403.38 119.024 403.38C118.28 403.38 117.741 403.667 117.407 404.241V411H114.867V397.5H117.407V402.527ZM124.605 406.157C124.605 405.214 124.787 404.373 125.15 403.635C125.514 402.896 126.035 402.325 126.715 401.921C127.4 401.517 128.194 401.314 129.097 401.314C130.38 401.314 131.426 401.707 132.234 402.492C133.049 403.277 133.503 404.344 133.597 405.691L133.614 406.342C133.614 407.801 133.207 408.973 132.393 409.857C131.578 410.736 130.485 411.176 129.114 411.176C127.743 411.176 126.647 410.736 125.827 409.857C125.013 408.979 124.605 407.783 124.605 406.271V406.157ZM127.146 406.342C127.146 407.244 127.315 407.936 127.655 408.416C127.995 408.891 128.481 409.128 129.114 409.128C129.729 409.128 130.21 408.894 130.556 408.425C130.901 407.95 131.074 407.194 131.074 406.157C131.074 405.272 130.901 404.587 130.556 404.101C130.21 403.614 129.724 403.371 129.097 403.371C128.476 403.371 127.995 403.614 127.655 404.101C127.315 404.581 127.146 405.328 127.146 406.342ZM143.449 407.546L144.697 401.49H147.149L144.724 411H142.597L140.795 405.015L138.993 411H136.875L134.449 401.49H136.901L138.141 407.537L139.881 401.49H141.718L143.449 407.546Z" fill="#0F2336"/>
<path d="M163 405.5H191M177 414L191 405.5L177 397V414Z" stroke="#173753" stroke-width="2.481" stroke-linecap="round" stroke-linejoin="round"/>
<path d="M410.137 297.218C411.569 297.218 412.76 297.648 413.709 298.507C414.658 299.349 415.132 300.432 415.132 301.757C415.132 303.082 414.658 304.174 413.709 305.033C412.76 305.875 411.569 306.295 410.137 306.295C408.687 306.295 407.487 305.866 406.539 305.006C405.608 304.147 405.142 303.064 405.142 301.757C405.142 300.45 405.608 299.367 406.539 298.507C407.487 297.648 408.687 297.218 410.137 297.218Z" fill="#F3AF47"/>
<path d="M194.138 291.74C194.138 296.216 193.118 299.805 191.077 302.509C189.054 305.194 186.314 306.537 182.859 306.537C179.923 306.537 177.55 305.517 175.742 303.476V317.172H167.981V276.942H175.178L175.447 279.789C177.327 277.533 179.779 276.405 182.805 276.405C186.386 276.405 189.17 277.73 191.157 280.38C193.145 283.03 194.138 286.682 194.138 291.337V291.74ZM186.377 291.176C186.377 288.472 185.894 286.387 184.927 284.918C183.978 283.45 182.59 282.716 180.764 282.716C178.329 282.716 176.655 283.647 175.742 285.509V297.406C176.691 299.322 178.383 300.28 180.818 300.28C184.524 300.28 186.377 297.245 186.377 291.176ZM217.485 303.046C215.569 305.373 212.919 306.537 209.535 306.537C206.42 306.537 204.039 305.642 202.392 303.852C200.763 302.061 199.93 299.438 199.894 295.983V276.942H207.655V295.714C207.655 298.74 209.034 300.253 211.791 300.253C214.423 300.253 216.231 299.34 217.216 297.514V276.942H225.004V306H217.699L217.485 303.046ZM248.297 284.22C247.24 284.077 246.309 284.005 245.504 284.005C242.567 284.005 240.643 284.999 239.73 286.986V306H231.969V276.942H239.3L239.515 280.407C241.073 277.739 243.23 276.405 245.987 276.405C246.846 276.405 247.652 276.522 248.404 276.754L248.297 284.22ZM264.714 300.28C266.147 300.28 267.31 299.886 268.205 299.098C269.101 298.31 269.566 297.263 269.602 295.956H276.88C276.862 297.925 276.325 299.734 275.268 301.381C274.212 303.01 272.762 304.281 270.918 305.194C269.092 306.09 267.069 306.537 264.849 306.537C260.695 306.537 257.419 305.221 255.019 302.589C252.62 299.94 251.421 296.287 251.421 291.632V291.122C251.421 286.646 252.611 283.074 254.993 280.407C257.374 277.739 260.641 276.405 264.795 276.405C268.429 276.405 271.339 277.444 273.523 279.521C275.725 281.579 276.844 284.328 276.88 287.765H269.602C269.566 286.261 269.101 285.044 268.205 284.113C267.31 283.164 266.129 282.689 264.661 282.689C262.852 282.689 261.483 283.352 260.552 284.677C259.639 285.984 259.182 288.114 259.182 291.068V291.874C259.182 294.864 259.639 297.012 260.552 298.319C261.465 299.626 262.852 300.28 264.714 300.28ZM289.994 280.111C292.053 277.641 294.64 276.405 297.755 276.405C304.058 276.405 307.253 280.067 307.343 287.389V306H299.582V287.604C299.582 285.939 299.224 284.713 298.507 283.925C297.791 283.119 296.601 282.716 294.936 282.716C292.662 282.716 291.015 283.594 289.994 285.348V306H282.233V264.75H289.994V280.111ZM331.146 306C330.788 305.302 330.528 304.433 330.367 303.395C328.487 305.49 326.043 306.537 323.035 306.537C320.189 306.537 317.825 305.714 315.946 304.066C314.084 302.419 313.153 300.342 313.153 297.836C313.153 294.757 314.289 292.393 316.563 290.746C318.855 289.099 322.158 288.266 326.473 288.249H330.045V286.583C330.045 285.241 329.696 284.167 328.997 283.361C328.317 282.555 327.234 282.152 325.748 282.152C324.441 282.152 323.411 282.466 322.659 283.092C321.925 283.719 321.558 284.578 321.558 285.67H313.797C313.797 283.987 314.316 282.43 315.355 280.998C316.393 279.565 317.861 278.446 319.759 277.641C321.657 276.817 323.787 276.405 326.151 276.405C329.731 276.405 332.569 277.309 334.664 279.118C336.776 280.908 337.833 283.432 337.833 286.691V299.286C337.851 302.043 338.236 304.129 338.988 305.543V306H331.146ZM324.727 300.602C325.873 300.602 326.929 300.351 327.896 299.85C328.863 299.331 329.579 298.642 330.045 297.782V292.787H327.144C323.259 292.787 321.191 294.13 320.941 296.815L320.914 297.272C320.914 298.239 321.254 299.035 321.934 299.662C322.615 300.289 323.546 300.602 324.727 300.602ZM360.642 297.97C360.642 297.021 360.167 296.278 359.219 295.741C358.288 295.186 356.784 294.694 354.707 294.264C347.796 292.814 344.341 289.878 344.341 285.456C344.341 282.877 345.406 280.729 347.536 279.01C349.685 277.274 352.487 276.405 355.942 276.405C359.63 276.405 362.576 277.274 364.778 279.01C366.998 280.747 368.108 283.003 368.108 285.778H360.347C360.347 284.668 359.988 283.755 359.272 283.039C358.556 282.305 357.437 281.938 355.915 281.938C354.608 281.938 353.597 282.233 352.881 282.824C352.165 283.415 351.806 284.167 351.806 285.08C351.806 285.939 352.209 286.637 353.015 287.174C353.839 287.694 355.217 288.15 357.151 288.544C359.084 288.92 360.714 289.35 362.038 289.833C366.138 291.337 368.188 293.942 368.188 297.648C368.188 300.298 367.051 302.446 364.778 304.093C362.504 305.722 359.568 306.537 355.969 306.537C353.534 306.537 351.368 306.107 349.47 305.248C347.59 304.371 346.113 303.18 345.039 301.676C343.965 300.154 343.428 298.516 343.428 296.762H350.786C350.858 298.14 351.368 299.197 352.317 299.931C353.266 300.665 354.537 301.032 356.13 301.032C357.616 301.032 358.735 300.754 359.487 300.199C360.257 299.626 360.642 298.883 360.642 297.97ZM387.694 306.537C383.433 306.537 379.96 305.23 377.274 302.616C374.607 300.002 373.273 296.52 373.273 292.169V291.417C373.273 288.499 373.837 285.894 374.965 283.603C376.093 281.293 377.686 279.521 379.745 278.285C381.822 277.032 384.185 276.405 386.835 276.405C390.81 276.405 393.934 277.659 396.208 280.165C398.499 282.672 399.645 286.225 399.645 290.827V293.996H381.142C381.392 295.893 382.144 297.415 383.397 298.561C384.669 299.707 386.271 300.28 388.205 300.28C391.194 300.28 393.531 299.197 395.214 297.03L399.027 301.3C397.864 302.947 396.288 304.236 394.301 305.167C392.313 306.081 390.111 306.537 387.694 306.537ZM386.808 282.689C385.268 282.689 384.015 283.209 383.048 284.247C382.099 285.285 381.491 286.771 381.222 288.705H392.018V288.087C391.982 286.369 391.517 285.044 390.622 284.113C389.726 283.164 388.455 282.689 386.808 282.689Z" fill="#0F2336"/>
<path d="M34.355 306.537C30.0939 306.537 26.6206 305.23 23.9351 302.616C21.2674 300.002 19.9336 296.52 19.9336 292.169V291.417C19.9336 288.499 20.4976 285.894 21.6255 283.603C22.7534 281.293 24.3468 279.521 26.4058 278.285C28.4826 277.032 30.8459 276.405 33.4956 276.405C37.4702 276.405 40.5944 277.659 42.8682 280.165C45.1598 282.672 46.3057 286.225 46.3057 290.827V293.996H27.8022C28.0529 295.893 28.8049 297.415 30.0581 298.561C31.3293 299.707 32.9316 300.28 34.8652 300.28C37.8551 300.28 40.1916 299.197 41.8745 297.03L45.688 301.3C44.5243 302.947 42.9487 304.236 40.9614 305.167C38.9741 306.081 36.772 306.537 34.355 306.537ZM33.4688 282.689C31.929 282.689 30.6758 283.209 29.709 284.247C28.7601 285.285 28.1514 286.771 27.8828 288.705H38.6787V288.087C38.6429 286.369 38.1774 285.044 37.2822 284.113C36.387 283.164 35.1159 282.689 33.4688 282.689ZM62.3473 296.52L67.7453 276.942H75.8556L66.0534 306H58.6413L48.839 276.942H56.9494L62.3473 296.52ZM93.4012 306.537C89.1401 306.537 85.6668 305.23 82.9812 302.616C80.3136 300.002 78.9798 296.52 78.9798 292.169V291.417C78.9798 288.499 79.5437 285.894 80.6717 283.603C81.7996 281.293 83.393 279.521 85.4519 278.285C87.5288 277.032 89.892 276.405 92.5418 276.405C96.5164 276.405 99.6406 277.659 101.914 280.165C104.206 282.672 105.352 286.225 105.352 290.827V293.996H86.8484C87.0991 295.893 87.851 297.415 89.1043 298.561C90.3754 299.707 91.9778 300.28 93.9114 300.28C96.9013 300.28 99.2377 299.197 100.921 297.03L104.734 301.3C103.57 302.947 101.995 304.236 100.008 305.167C98.0203 306.081 95.8181 306.537 93.4012 306.537ZM92.5149 282.689C90.9752 282.689 89.722 283.209 88.7552 284.247C87.8063 285.285 87.1975 286.771 86.929 288.705H97.7249V288.087C97.6891 286.369 97.2236 285.044 96.3284 284.113C95.4332 283.164 94.1621 282.689 92.5149 282.689ZM127.221 284.22C126.165 284.077 125.234 284.005 124.428 284.005C121.492 284.005 119.567 284.999 118.654 286.986V306H110.893V276.942H118.225L118.439 280.407C119.997 277.739 122.154 276.405 124.912 276.405C125.771 276.405 126.577 276.522 127.329 276.754L127.221 284.22ZM143.424 295.016L148.795 276.942H157.12L145.438 310.512L144.794 312.042C143.057 315.838 140.192 317.736 136.2 317.736C135.072 317.736 133.926 317.566 132.762 317.226V311.344L133.944 311.371C135.412 311.371 136.504 311.147 137.22 310.7C137.954 310.252 138.527 309.509 138.939 308.471L139.852 306.081L129.674 276.942H138.026L143.424 295.016Z" fill="#0F2336"/>
<path d="M37.8193 231C37.4613 230.302 37.2017 229.433 37.0405 228.395C35.1606 230.49 32.7168 231.537 29.709 231.537C26.8623 231.537 24.499 230.714 22.6191 229.066C20.7572 227.419 19.8262 225.342 19.8262 222.836C19.8262 219.757 20.9631 217.393 23.2368 215.746C25.5285 214.099 28.8317 213.266 33.1465 213.249H36.7183V211.583C36.7183 210.241 36.3691 209.167 35.6709 208.361C34.9906 207.555 33.9074 207.152 32.4214 207.152C31.1144 207.152 30.085 207.466 29.333 208.092C28.599 208.719 28.2319 209.578 28.2319 210.67H20.4707C20.4707 208.987 20.9899 207.43 22.0283 205.998C23.0667 204.565 24.5348 203.446 26.4326 202.641C28.3304 201.817 30.4609 201.405 32.8242 201.405C36.4049 201.405 39.2427 202.309 41.3374 204.118C43.45 205.908 44.5063 208.432 44.5063 211.691V224.286C44.5243 227.043 44.9092 229.129 45.6611 230.543V231H37.8193ZM31.4009 225.602C32.5467 225.602 33.603 225.351 34.5698 224.85C35.5366 224.331 36.2528 223.642 36.7183 222.782V217.787H33.8179C29.9328 217.787 27.8649 219.13 27.6143 221.815L27.5874 222.272C27.5874 223.239 27.9276 224.035 28.6079 224.662C29.2882 225.289 30.2192 225.602 31.4009 225.602ZM58.7218 201.942L58.9635 205.299C61.0403 202.703 63.8244 201.405 67.3156 201.405C70.395 201.405 72.6867 202.309 74.1906 204.118C75.6945 205.926 76.4643 208.629 76.5001 212.228V231H68.7389V212.416C68.7389 210.769 68.3808 209.578 67.6647 208.844C66.9485 208.092 65.7579 207.716 64.0929 207.716C61.9087 207.716 60.2705 208.647 59.1784 210.509V231H51.4171V201.942H58.7218ZM82.3098 216.256C82.3098 211.727 83.3214 208.119 85.3445 205.434C87.3855 202.748 90.1695 201.405 93.6966 201.405C96.5253 201.405 98.8618 202.462 100.706 204.574V189.75H108.494V231H101.485L101.109 227.912C99.1751 230.329 96.6865 231.537 93.6429 231.537C90.2233 231.537 87.475 230.194 85.3982 227.509C83.3393 224.805 82.3098 221.055 82.3098 216.256ZM90.0711 216.82C90.0711 219.542 90.5455 221.627 91.4944 223.078C92.4433 224.528 93.8219 225.253 95.6302 225.253C98.0292 225.253 99.7211 224.241 100.706 222.218V210.751C99.739 208.728 98.0651 207.716 95.6839 207.716C91.942 207.716 90.0711 210.751 90.0711 216.82ZM143.8 231.537C139.539 231.537 136.065 230.23 133.38 227.616C130.712 225.002 129.378 221.52 129.378 217.169V216.417C129.378 213.499 129.942 210.894 131.07 208.603C132.198 206.293 133.792 204.521 135.851 203.285C137.927 202.032 140.291 201.405 142.94 201.405C146.915 201.405 150.039 202.659 152.313 205.165C154.605 207.672 155.751 211.225 155.751 215.827V218.996H137.247C137.498 220.893 138.25 222.415 139.503 223.561C140.774 224.707 142.377 225.28 144.31 225.28C147.3 225.28 149.636 224.197 151.319 222.03L155.133 226.3C153.969 227.947 152.394 229.236 150.406 230.167C148.419 231.081 146.217 231.537 143.8 231.537ZM142.914 207.689C141.374 207.689 140.121 208.209 139.154 209.247C138.205 210.285 137.596 211.771 137.328 213.705H148.124V213.087C148.088 211.369 147.622 210.044 146.727 209.113C145.832 208.164 144.561 207.689 142.914 207.689ZM178.13 231C177.772 230.302 177.512 229.433 177.351 228.395C175.471 230.49 173.028 231.537 170.02 231.537C167.173 231.537 164.81 230.714 162.93 229.066C161.068 227.419 160.137 225.342 160.137 222.836C160.137 219.757 161.274 217.393 163.548 215.746C165.839 214.099 169.142 213.266 173.457 213.249H177.029V211.583C177.029 210.241 176.68 209.167 175.982 208.361C175.301 207.555 174.218 207.152 172.732 207.152C171.425 207.152 170.396 207.466 169.644 208.092C168.91 208.719 168.543 209.578 168.543 210.67H160.781C160.781 208.987 161.301 207.43 162.339 205.998C163.377 204.565 164.846 203.446 166.743 202.641C168.641 201.817 170.772 201.405 173.135 201.405C176.716 201.405 179.553 202.309 181.648 204.118C183.761 205.908 184.817 208.432 184.817 211.691V224.286C184.835 227.043 185.22 229.129 185.972 230.543V231H178.13ZM171.712 225.602C172.857 225.602 173.914 225.351 174.881 224.85C175.847 224.331 176.564 223.642 177.029 222.782V217.787H174.129C170.244 217.787 168.176 219.13 167.925 221.815L167.898 222.272C167.898 223.239 168.238 224.035 168.919 224.662C169.599 225.289 170.53 225.602 171.712 225.602ZM208.217 209.22C207.161 209.077 206.23 209.005 205.424 209.005C202.488 209.005 200.563 209.999 199.65 211.986V231H191.889V201.942H199.221L199.435 205.407C200.993 202.739 203.15 201.405 205.908 201.405C206.767 201.405 207.573 201.522 208.325 201.754L208.217 209.22ZM220.23 201.942L220.472 205.299C222.549 202.703 225.333 201.405 228.824 201.405C231.904 201.405 234.195 202.309 235.699 204.118C237.203 205.926 237.973 208.629 238.009 212.228V231H230.248V212.416C230.248 210.769 229.889 209.578 229.173 208.844C228.457 208.092 227.267 207.716 225.602 207.716C223.417 207.716 221.779 208.647 220.687 210.509V231H212.926V201.942H220.23ZM276.161 209.22C275.105 209.077 274.174 209.005 273.368 209.005C270.432 209.005 268.508 209.999 267.594 211.986V231H259.833V201.942H267.165L267.38 205.407C268.937 202.739 271.095 201.405 273.852 201.405C274.711 201.405 275.517 201.522 276.269 201.754L276.161 209.22ZM293.868 231.537C289.607 231.537 286.134 230.23 283.448 227.616C280.781 225.002 279.447 221.52 279.447 217.169V216.417C279.447 213.499 280.011 210.894 281.139 208.603C282.267 206.293 283.86 204.521 285.919 203.285C287.996 202.032 290.359 201.405 293.009 201.405C296.983 201.405 300.107 202.659 302.381 205.165C304.673 207.672 305.819 211.225 305.819 215.827V218.996H287.315C287.566 220.893 288.318 222.415 289.571 223.561C290.842 224.707 292.445 225.28 294.378 225.28C297.368 225.28 299.705 224.197 301.388 222.03L305.201 226.3C304.037 227.947 302.462 229.236 300.475 230.167C298.487 231.081 296.285 231.537 293.868 231.537ZM292.982 207.689C291.442 207.689 290.189 208.209 289.222 209.247C288.273 210.285 287.664 211.771 287.396 213.705H298.192V213.087C298.156 211.369 297.691 210.044 296.795 209.113C295.9 208.164 294.629 207.689 292.982 207.689ZM336.631 220.446L340.444 201.942H347.937L340.525 231H334.026L328.521 212.711L323.015 231H316.543L309.131 201.942H316.624L320.41 220.419L325.728 201.942H331.34L336.631 220.446ZM369.753 231C369.395 230.302 369.135 229.433 368.974 228.395C367.094 230.49 364.65 231.537 361.642 231.537C358.796 231.537 356.432 230.714 354.552 229.066C352.69 227.419 351.759 225.342 351.759 222.836C351.759 219.757 352.896 217.393 355.17 215.746C357.462 214.099 360.765 213.266 365.08 213.249H368.652V211.583C368.652 210.241 368.302 209.167 367.604 208.361C366.924 207.555 365.841 207.152 364.355 207.152C363.048 207.152 362.018 207.466 361.266 208.092C360.532 208.719 360.165 209.578 360.165 210.67H352.404C352.404 208.987 352.923 207.43 353.962 205.998C355 204.565 356.468 203.446 358.366 202.641C360.264 201.817 362.394 201.405 364.758 201.405C368.338 201.405 371.176 202.309 373.271 204.118C375.383 205.908 376.44 208.432 376.44 211.691V224.286C376.458 227.043 376.842 229.129 377.594 230.543V231H369.753ZM363.334 225.602C364.48 225.602 365.536 225.351 366.503 224.85C367.47 224.331 368.186 223.642 368.652 222.782V217.787H365.751C361.866 217.787 359.798 219.13 359.548 221.815L359.521 222.272C359.521 223.239 359.861 224.035 360.541 224.662C361.222 225.289 362.153 225.602 363.334 225.602ZM399.84 209.22C398.783 209.077 397.852 209.005 397.047 209.005C394.11 209.005 392.186 209.999 391.273 211.986V231H383.512V201.942H390.843L391.058 205.407C392.616 202.739 394.773 201.405 397.53 201.405C398.389 201.405 399.195 201.522 399.947 201.754L399.84 209.22ZM402.964 216.256C402.964 211.727 403.975 208.119 405.999 205.434C408.04 202.748 410.824 201.405 414.351 201.405C417.179 201.405 419.516 202.462 421.36 204.574V189.75H429.148V231H422.139L421.763 227.912C419.829 230.329 417.34 231.537 414.297 231.537C410.877 231.537 408.129 230.194 406.052 227.509C403.993 224.805 402.964 221.055 402.964 216.256ZM410.725 216.82C410.725 219.542 411.2 221.627 412.148 223.078C413.097 224.528 414.476 225.253 416.284 225.253C418.683 225.253 420.375 224.241 421.36 222.218V210.751C420.393 208.728 418.719 207.716 416.338 207.716C412.596 207.716 410.725 210.751 410.725 216.82ZM452.011 222.97C452.011 222.021 451.536 221.278 450.587 220.741C449.657 220.186 448.153 219.694 446.076 219.264C439.165 217.814 435.71 214.878 435.71 210.456C435.71 207.877 436.775 205.729 438.905 204.01C441.054 202.274 443.856 201.405 447.311 201.405C450.999 201.405 453.944 202.274 456.147 204.01C458.367 205.747 459.477 208.003 459.477 210.778H451.715C451.715 209.668 451.357 208.755 450.641 208.039C449.925 207.305 448.806 206.938 447.284 206.938C445.977 206.938 444.966 207.233 444.25 207.824C443.533 208.415 443.175 209.167 443.175 210.08C443.175 210.939 443.578 211.637 444.384 212.174C445.207 212.694 446.586 213.15 448.52 213.544C450.453 213.92 452.082 214.35 453.407 214.833C457.507 216.337 459.557 218.942 459.557 222.648C459.557 225.298 458.42 227.446 456.147 229.093C453.873 230.722 450.937 231.537 447.338 231.537C444.903 231.537 442.737 231.107 440.839 230.248C438.959 229.371 437.482 228.18 436.408 226.676C435.334 225.154 434.796 223.516 434.796 221.762H442.155C442.226 223.14 442.737 224.197 443.686 224.931C444.635 225.665 445.906 226.032 447.499 226.032C448.985 226.032 450.104 225.754 450.856 225.199C451.626 224.626 452.011 223.883 452.011 222.97ZM482.617 231V207.636H478.293V201.942H482.617V199.472C482.617 196.213 483.548 193.689 485.41 191.898C487.29 190.09 489.913 189.186 493.279 189.186C494.353 189.186 495.669 189.365 497.226 189.723L497.146 195.739C496.501 195.578 495.714 195.497 494.783 195.497C491.864 195.497 490.405 196.867 490.405 199.606V201.942H496.179V207.636H490.405V231H482.617ZM500.109 216.203C500.109 213.32 500.664 210.751 501.774 208.495C502.884 206.239 504.477 204.494 506.554 203.258C508.649 202.023 511.075 201.405 513.832 201.405C517.753 201.405 520.949 202.605 523.419 205.004C525.908 207.403 527.296 210.661 527.582 214.779L527.636 216.767C527.636 221.225 526.391 224.805 523.903 227.509C521.414 230.194 518.075 231.537 513.886 231.537C509.696 231.537 506.348 230.194 503.842 227.509C501.353 224.823 500.109 221.171 500.109 216.552V216.203ZM507.87 216.767C507.87 219.524 508.389 221.636 509.428 223.104C510.466 224.555 511.952 225.28 513.886 225.28C515.766 225.28 517.234 224.564 518.29 223.131C519.346 221.681 519.875 219.372 519.875 216.203C519.875 213.499 519.346 211.404 518.29 209.918C517.234 208.432 515.748 207.689 513.832 207.689C511.934 207.689 510.466 208.432 509.428 209.918C508.389 211.387 507.87 213.669 507.87 216.767ZM549.854 209.22C548.798 209.077 547.867 209.005 547.061 209.005C544.125 209.005 542.2 209.999 541.287 211.986V231H533.526V201.942H540.858L541.072 205.407C542.63 202.739 544.787 201.405 547.545 201.405C548.404 201.405 549.21 201.522 549.962 201.754L549.854 209.22Z" fill="#0F2336"/>
<path d="M53.6104 137.335C53.6104 141.185 52.93 144.56 51.5693 147.46C50.2087 150.36 48.2572 152.598 45.7148 154.174C43.1904 155.749 40.29 156.537 37.0137 156.537C33.7731 156.537 30.8817 155.758 28.3394 154.201C25.797 152.643 23.8276 150.423 22.4312 147.541C21.0347 144.64 20.3275 141.31 20.3096 137.55V135.617C20.3096 131.767 20.9989 128.384 22.3774 125.465C23.7739 122.529 25.7344 120.282 28.2588 118.725C30.8011 117.149 33.7015 116.361 36.96 116.361C40.2184 116.361 43.1099 117.149 45.6343 118.725C48.1766 120.282 50.137 122.529 51.5156 125.465C52.9121 128.384 53.6104 131.758 53.6104 135.59V137.335ZM45.4463 135.563C45.4463 131.463 44.7122 128.348 43.2441 126.217C41.776 124.087 39.6813 123.021 36.96 123.021C34.2565 123.021 32.1707 124.078 30.7026 126.19C29.2345 128.285 28.4915 131.365 28.4736 135.429V137.335C28.4736 141.328 29.2077 144.425 30.6758 146.627C32.1439 148.83 34.2565 149.931 37.0137 149.931C39.7171 149.931 41.7939 148.874 43.2441 146.762C44.6943 144.631 45.4284 141.534 45.4463 137.47V135.563ZM76.3927 134.22C75.3364 134.077 74.4054 134.005 73.5997 134.005C70.6635 134.005 68.7389 134.999 67.8258 136.986V156H60.0646V126.942H67.3961L67.611 130.407C69.1686 127.739 71.326 126.405 74.0831 126.405C74.9425 126.405 75.7482 126.522 76.5001 126.754L76.3927 134.22ZM79.5169 141.256C79.5169 136.727 80.5284 133.119 82.5515 130.434C84.5926 127.748 87.3766 126.405 90.9036 126.405C93.7324 126.405 96.0688 127.462 97.9129 129.574V114.75H105.701V156H98.6917L98.3157 152.912C96.3821 155.329 93.8935 156.537 90.8499 156.537C87.4303 156.537 84.6821 155.194 82.6053 152.509C80.5463 149.805 79.5169 146.055 79.5169 141.256ZM87.2781 141.82C87.2781 144.542 87.7526 146.627 88.7014 148.078C89.6503 149.528 91.0289 150.253 92.8372 150.253C95.2363 150.253 96.9282 149.241 97.9129 147.218V135.751C96.9461 133.728 95.2721 132.716 92.8909 132.716C89.149 132.716 87.2781 135.751 87.2781 141.82ZM126.201 156.537C121.94 156.537 118.466 155.23 115.781 152.616C113.113 150.002 111.779 146.52 111.779 142.169V141.417C111.779 138.499 112.343 135.894 113.471 133.603C114.599 131.293 116.192 129.521 118.251 128.285C120.328 127.032 122.691 126.405 125.341 126.405C129.316 126.405 132.44 127.659 134.714 130.165C137.005 132.672 138.151 136.225 138.151 140.827V143.996H119.648C119.899 145.893 120.65 147.415 121.904 148.561C123.175 149.707 124.777 150.28 126.711 150.28C129.701 150.28 132.037 149.197 133.72 147.03L137.534 151.3C136.37 152.947 134.794 154.236 132.807 155.167C130.82 156.081 128.618 156.537 126.201 156.537ZM125.314 132.689C123.775 132.689 122.521 133.209 121.555 134.247C120.606 135.285 119.997 136.771 119.728 138.705H130.524V138.087C130.489 136.369 130.023 135.044 129.128 134.113C128.233 133.164 126.962 132.689 125.314 132.689ZM160.021 134.22C158.964 134.077 158.033 134.005 157.228 134.005C154.291 134.005 152.367 134.999 151.454 136.986V156H143.692V126.942H151.024L151.239 130.407C152.796 127.739 154.954 126.405 157.711 126.405C158.57 126.405 159.376 126.522 160.128 126.754L160.021 134.22ZM196.535 156C196.177 155.302 195.917 154.433 195.756 153.395C193.876 155.49 191.432 156.537 188.425 156.537C185.578 156.537 183.215 155.714 181.335 154.066C179.473 152.419 178.542 150.342 178.542 147.836C178.542 144.757 179.679 142.393 181.952 140.746C184.244 139.099 187.547 138.266 191.862 138.249H195.434V136.583C195.434 135.241 195.085 134.167 194.387 133.361C193.706 132.555 192.623 132.152 191.137 132.152C189.83 132.152 188.801 132.466 188.049 133.092C187.315 133.719 186.948 134.578 186.948 135.67H179.186C179.186 133.987 179.706 132.43 180.744 130.998C181.782 129.565 183.25 128.446 185.148 127.641C187.046 126.817 189.177 126.405 191.54 126.405C195.121 126.405 197.958 127.309 200.053 129.118C202.166 130.908 203.222 133.432 203.222 136.691V149.286C203.24 152.043 203.625 154.129 204.377 155.543V156H196.535ZM190.117 150.602C191.262 150.602 192.319 150.351 193.285 149.85C194.252 149.331 194.968 148.642 195.434 147.782V142.787H192.534C188.648 142.787 186.581 144.13 186.33 146.815L186.303 147.272C186.303 148.239 186.643 149.035 187.324 149.662C188.004 150.289 188.935 150.602 190.117 150.602ZM217.867 130.111C219.926 127.641 222.513 126.405 225.628 126.405C231.93 126.405 235.126 130.067 235.216 137.389V156H227.455V137.604C227.455 135.939 227.097 134.713 226.38 133.925C225.664 133.119 224.474 132.716 222.809 132.716C220.535 132.716 218.888 133.594 217.867 135.348V156H210.106V114.75H217.867V130.111ZM255.554 156.537C251.293 156.537 247.82 155.23 245.134 152.616C242.467 150.002 241.133 146.52 241.133 142.169V141.417C241.133 138.499 241.697 135.894 242.825 133.603C243.953 131.293 245.546 129.521 247.605 128.285C249.682 127.032 252.045 126.405 254.695 126.405C258.67 126.405 261.794 127.659 264.068 130.165C266.359 132.672 267.505 136.225 267.505 140.827V143.996H249.002C249.252 145.893 250.004 147.415 251.257 148.561C252.529 149.707 254.131 150.28 256.065 150.28C259.054 150.28 261.391 149.197 263.074 147.03L266.887 151.3C265.724 152.947 264.148 154.236 262.161 155.167C260.173 156.081 257.971 156.537 255.554 156.537ZM254.668 132.689C253.128 132.689 251.875 133.209 250.908 134.247C249.959 135.285 249.351 136.771 249.082 138.705H259.878V138.087C259.842 136.369 259.377 135.044 258.482 134.113C257.586 133.164 256.315 132.689 254.668 132.689ZM289.885 156C289.526 155.302 289.267 154.433 289.106 153.395C287.226 155.49 284.782 156.537 281.774 156.537C278.928 156.537 276.564 155.714 274.684 154.066C272.822 152.419 271.891 150.342 271.891 147.836C271.891 144.757 273.028 142.393 275.302 140.746C277.594 139.099 280.897 138.266 285.212 138.249H288.783V136.583C288.783 135.241 288.434 134.167 287.736 133.361C287.056 132.555 285.973 132.152 284.487 132.152C283.18 132.152 282.15 132.466 281.398 133.092C280.664 133.719 280.297 134.578 280.297 135.67H272.536C272.536 133.987 273.055 132.43 274.094 130.998C275.132 129.565 276.6 128.446 278.498 127.641C280.396 126.817 282.526 126.405 284.889 126.405C288.47 126.405 291.308 127.309 293.403 129.118C295.515 130.908 296.572 133.432 296.572 136.691V149.286C296.589 152.043 296.974 154.129 297.726 155.543V156H289.885ZM283.466 150.602C284.612 150.602 285.668 150.351 286.635 149.85C287.602 149.331 288.318 148.642 288.783 147.782V142.787H285.883C281.998 142.787 279.93 144.13 279.679 146.815L279.653 147.272C279.653 148.239 279.993 149.035 280.673 149.662C281.353 150.289 282.284 150.602 283.466 150.602ZM302.435 141.256C302.435 136.727 303.447 133.119 305.47 130.434C307.511 127.748 310.295 126.405 313.822 126.405C316.65 126.405 318.987 127.462 320.831 129.574V114.75H328.619V156H321.61L321.234 152.912C319.3 155.329 316.812 156.537 313.768 156.537C310.348 156.537 307.6 155.194 305.523 152.509C303.464 149.805 302.435 146.055 302.435 141.256ZM310.196 141.82C310.196 144.542 310.671 146.627 311.62 148.078C312.568 149.528 313.947 150.253 315.755 150.253C318.154 150.253 319.846 149.241 320.831 147.218V135.751C319.864 133.728 318.19 132.716 315.809 132.716C312.067 132.716 310.196 135.751 310.196 141.82Z" fill="#00CCCC"/>
<defs>
<filter id="filter0_d_0_245" x="0" y="360" width="244" height="96" filterUnits="userSpaceOnUse" color-interpolation-filters="sRGB">
<feFlood flood-opacity="0" result="BackgroundImageFix"/>
<feColorMatrix in="SourceAlpha" type="matrix" values="0 0 0 0 0 0 0 0 0 0 0 0 0 0 0 0 0 0 127 0" result="hardAlpha"/>
<feOffset dy="3"/>
<feGaussianBlur stdDeviation="9"/>
<feColorMatrix type="matrix" values="0 0 0 0 0 0 0 0 0 0.788235 0 0 0 0 0.788235 0 0 0 0.55 0"/>
<feBlend mode="normal" in2="BackgroundImageFix" result="effect1_dropShadow_0_245"/>
<feBlend mode="normal" in="SourceGraphic" in2="effect1_dropShadow_0_245" result="shape"/>
</filter>
</defs>
</svg>
